<svg width="510" height="510" viewBox="0 0 510 510" fill="none" xmlns="http://www.w3.org/2000/svg">
<path d="M255 510C395.833 510 510 395.833 510 255C510 114.167 395.833 0 255 0C114.167 0 0 114.167 0 255C0 395.833 114.167 510 255 510Z" fill="#EBA4AB"/>
<path d="M85.8998 241.1C87.1998 241.3 88.5998 241.4 90.0998 241.5C92.2998 241.5 94.2998 241.8 96.0998 242.3C98.6998 243.3 99.8998 245 99.8998 247.4V247.8C99.7998 250.8 98.6998 252.9 96.5998 254C93.9998 255.1 91.4998 255.7 88.9998 255.7C86.4998 255.7 85.0998 255.7 84.7998 255.7C80.3998 255.7 76.2998 255.4 72.4998 254.8C70.9998 254.5 69.8998 253.7 69.0998 252.7C68.2998 251.6 67.8998 250.5 67.7998 249.3L69.1998 183.9C69.2998 179.6 70.2998 176.6 72.0998 174.9C73.8998 173.2 76.5998 172.3 80.0998 172.2C81.4998 172.2 82.9998 172.1 84.5998 172.1C86.1998 172.1 87.9998 172.1 89.8998 172.2C93.6998 172.3 97.2998 172.4 100.5 172.6C104.6 173 107 173.9 107.8 175.4C108.6 176.9 109 178 109 178.8C109 180.1 108.5 181.3 107.5 182.5C105.8 184.6 102.8 185.9 98.3998 186.4C96.6998 186.5 94.9998 186.5 93.1998 186.5C92.2998 186.5 91.3998 186.5 90.3998 186.4C89.0998 186.4 87.7998 186.3 86.3998 186.3V207.2C88.7998 207.2 91.4998 207.3 94.4998 207.6C97.4998 207.8 100.1 208.4 102.3 209.2C104.5 210 105.7 211.3 105.9 213.1V213.3C105.9 216.9 104.4 219.2 101.3 220.3C98.1998 221.4 94.6998 222.1 90.7998 222.4C88.9998 222.6 87.1998 222.9 85.5998 223.1V241.1H85.8998Z" fill="white"/>
<path d="M165.7 187.4L166.2 240.5V241.7C166.2 244.3 165.8 246.9 165 249.5C164.1 252.5 161.9 254.1 158.3 254.4C155 254.3 152.7 252.8 151.5 250.1C150.3 247.4 149.7 244.5 149.7 241.6L148.8 189.3C147.5 189.5 146.2 189.7 144.8 190C141.4 190.7 138.2 191.1 135.2 191.1C134.4 191.1 133.7 191.1 132.9 191C129.2 190.8 126.9 188.7 125.9 184.8C125.8 184.2 125.8 183.7 125.8 183.1C125.8 180.4 126.9 178.3 129.1 176.8C131.7 175 134.5 173.9 137.4 173.6L179.7 168.4C183.6 168.8 186.1 169.8 187.4 171.5C188.6 173.2 189.3 174.7 189.3 176C189.3 176.9 189.1 177.8 188.7 178.8C187.7 181.1 185.3 182.9 181.5 184C178.1 184.8 174.5 185.5 170.9 186.1C169.2 186.8 167.5 187.1 165.7 187.4Z" fill="white"/>
<path d="M227.1 243.3C226.2 246 225 247.5 223.4 247.8C221.9 248.1 220.8 248.3 220.2 248.3C218.5 248.3 216.9 247.7 215.3 246.6C213.2 245 212 242.3 211.7 238.4C211.6 230.4 211.4 220.9 211.3 209.9C211.2 198.9 211.1 189.4 211 181.4C211.1 177.6 212.2 174.9 214 173.5C215.9 172 217.7 171.3 219.6 171.3C220.1 171.3 220.7 171.3 221.2 171.4C223.7 171.9 225.4 173.4 226.5 176C227.2 178.6 227.7 184.1 228 192.5C228.3 200.9 228.4 208.5 228.4 215.4C228.4 218.4 228.4 221.3 228.3 224.3C228.2 234.2 227.8 240.5 227.1 243.3Z" fill="white"/>
<path d="M306.5 224.4C307.1 225.1 307.7 225.9 308.4 226.7C310.9 229.4 312.8 231.8 314 234C315.2 236.2 315.8 238 315.8 239.3C315.8 240.9 315.2 242.5 314 244.1C312.4 245.8 310.7 246.6 308.8 246.6H308.5C306.5 246.5 304.5 245.9 302.6 244.8C300.6 243.7 298.9 242.6 297.3 241.4C296.7 241 296.2 240.6 295.7 240.3C295.1 240.7 294.5 241.1 294 241.5C292.7 242.4 291.5 243.2 290.2 244C285 247.1 280 248.7 275.4 248.7C273.2 248.7 271 248.4 269 247.7C262.6 245.6 257.8 241.4 254.8 235.2C251.8 229 250.3 222.4 250.3 215.3C250.3 212.9 250.4 210.3 250.7 207.7C251.9 197.4 256.3 186.5 264 175C266.5 171.5 269.2 169.2 272.3 168.2C275.4 167.2 278.2 166.7 280.8 166.7C282.2 166.7 283.5 166.8 284.9 167C288.9 167.7 292.5 169.1 295.9 171.1C301.5 174.7 305.3 179.4 307.5 185.2C309.7 191 310.8 196.9 310.8 202.9C310.8 203.8 310.8 204.6 310.7 205.5C310.3 212.5 308.9 218.8 306.5 224.4ZM272.3 193.8C270 198.8 268.5 203.1 267.9 206.5C267.3 209.9 267 212.8 267 215C267 217.7 267.3 220.5 267.9 223.4C268.7 227.4 269.7 229.6 271 230.1C272.3 230.6 273.3 230.8 274 230.8C275.8 230.8 278.2 230 281 228.5C279.3 226.5 278 224.7 277.4 223.1C276.7 221.6 276.4 220.3 276.4 219.3C276.4 217.8 276.9 216.2 277.8 214.6C279.5 211.9 281.2 210.5 282.9 210.3C284.6 210.1 285.8 210 286.5 210C288.3 210 290.2 210.2 292 210.7C292.8 207.2 293.2 203.9 293.2 201C293.2 193.9 290.9 188.9 286.4 185.9C284.6 184.9 283 184.4 281.5 184.4C280.1 184.4 278.9 184.8 277.9 185.6C275.7 187.6 273.8 190.2 272.3 193.8Z" fill="white"/>
<path d="M360.9 211.6C362.1 206.9 363.2 200.6 364.1 192.8C364.6 188.6 365.2 184.9 365.7 181.5C366.3 178.2 366.8 175.9 367.5 174.7C368.9 172.5 370.1 171.3 371.3 171.1C372.5 170.9 373.3 170.9 373.6 170.9C375.3 170.9 376.9 171.5 378.3 172.7C380 174.1 380.9 176.2 381.1 179C381.1 181.1 381.2 183.2 381.2 185.2C381.2 194.1 380.5 202.1 379.2 209.2C377.5 218 374.5 224.7 370.2 229.4C365 234.6 359.5 237.2 353.7 237.2H353C346.9 237 342 233.9 338 227.9C334.8 222.3 333 216.5 332.5 210.6C332 204.6 331.8 199.4 331.8 194.8C331.8 192.3 331.8 189.8 331.9 187.4C331.9 185.4 332 183.4 332 181.5C332.2 176.8 333.3 173.8 335.2 172.6C337.2 171.4 338.9 170.7 340.4 170.7C341.4 170.7 342.4 170.9 343.4 171.4C345.9 172.4 347.5 174.4 348 177.3L349.7 209.7C350.4 216 351.4 219.2 352.7 219.4C354 219.6 354.7 219.7 354.8 219.7C357.2 219.6 359.1 217 360.9 211.6Z" fill="white"/>
<path d="M420.9 241.1C422.2 241.3 423.6 241.4 425.1 241.5C427.3 241.5 429.3 241.8 431.1 242.3C433.7 243.3 434.9 245 434.9 247.4V247.8C434.8 250.8 433.7 252.9 431.6 254C429 255.1 426.5 255.7 424 255.7C421.5 255.7 420.1 255.7 419.8 255.7C415.4 255.7 411.3 255.4 407.5 254.8C406 254.5 404.9 253.7 404.1 252.7C403.3 251.6 402.9 250.5 402.8 249.3L404.2 183.9C404.3 179.6 405.3 176.6 407.1 174.9C408.9 173.2 411.6 172.3 415 172.2C416.4 172.2 417.9 172.1 419.5 172.1C421.1 172.1 422.9 172.1 424.8 172.2C428.6 172.3 432.2 172.4 435.4 172.6C439.5 173 441.9 173.9 442.7 175.4C443.5 176.9 443.9 178 443.9 178.8C443.9 180.1 443.4 181.3 442.4 182.5C440.7 184.6 437.7 185.9 433.3 186.4C431.6 186.5 429.9 186.5 428.1 186.5C427.2 186.5 426.3 186.5 425.3 186.4C424 186.4 422.7 186.3 421.3 186.3V207.2C423.7 207.2 426.4 207.3 429.4 207.6C432.4 207.8 435 208.4 437.2 209.2C439.4 210 440.6 211.3 440.8 213.1V213.3C440.8 216.9 439.3 219.2 436.2 220.3C433.1 221.4 429.6 222.1 425.7 222.4C423.9 222.6 422.1 222.9 420.5 223.1V241.1H420.9Z" fill="white"/>
<path d="M103.7 335.6H104.9C106.7 335.6 108.5 335.8 110.2 336.2C112.2 336.7 113.4 338 113.8 340.1C113.8 340.7 113.9 341.2 113.9 341.8C113.9 343.8 113.5 345.6 112.6 347.3C111.5 349.4 109.7 351.1 107.2 352.3C103.3 353.9 98.9 354.8 94.2 354.8C93.2 354.8 92.2 354.8 91.2 354.7C85.2 354.3 79.9 352.2 75.2 348.6C70.5 345 67.5 339.3 66.4 331.6C66.1 329 66 326.5 66 324C66 306 73.3 291 88 278.9C92.4 275.5 95.7 273.7 98 273.7C100.3 273.6 101.5 273.6 101.8 273.6C105.9 273.6 109.5 274.6 112.7 276.5C116 278.5 118.1 280.5 118.9 282.5C119.7 284.5 120.2 286.1 120.2 287.3C120.2 289.1 119.6 290.9 118.3 292.6C116.5 294.8 114.9 296 113.4 296C111.9 296 110.4 295.6 109 294.8C107.5 293.9 105.7 293.4 103.7 293.4H103.4C101.3 293.5 98.7 295.2 95.6 298.5C90 305.1 86.5 312.7 85.4 321.3C85.2 322.8 85.1 324.3 85.1 325.5C85.1 328.2 85.6 330.3 86.6 331.7C88.1 333.8 90.2 335.1 92.6 335.4C95.1 335.7 97.5 335.9 100 335.9C100.9 335.9 101.8 335.9 102.8 335.8C103 335.7 103.3 335.7 103.7 335.6Z" fill="#347AA7"/>
<path d="M137.4 323.3C137 320.5 136.8 317.8 136.8 315.2C136.8 307.9 138.2 301.2 141 295.2C144.8 287.1 149.8 280.9 156.1 276.8C162.4 272.6 168.6 270.6 174.9 270.6C175.9 270.6 176.9 270.7 177.9 270.8C185.2 271.4 191.7 275.3 197.3 282.5C202.7 289.9 205.6 296.1 205.8 301.1C206 306.1 206.2 308.9 206.2 309.7C206.2 318 204.3 325.9 200.6 333.4C196.6 341.5 190.5 347.9 182.6 352.6C177.8 355.2 173.1 356.4 168.5 356.4C166.5 356.4 164.5 356.1 162.4 355.6C156 354 150.6 350.3 146.1 344.5C141.6 338.6 138.7 331.6 137.4 323.3ZM183.4 322C178.7 321.6 174.3 321.3 170.2 320.9C165.7 320.5 161.1 320.1 156.5 319.7C156.7 320.3 157 321 157.3 321.8C158 324.2 159.1 326.9 160.6 329.7C162 332.5 163.5 334.3 164.9 334.9C166.3 335.5 167.4 335.9 168.1 335.9C170 335.9 172.2 334.8 174.7 332.7C176.8 330.7 178.7 328.4 180.5 325.8C181.4 324.5 182.4 323.3 183.4 322ZM183.6 301.7C182 294 178.9 290.2 174.3 290.2C173.5 290.2 172.6 290.3 171.7 290.6C169.4 291.3 168 292.3 167.5 293.7C167 295.1 166.7 296.2 166.7 297C166.7 297.8 166.9 298.7 167.3 299.6C168.1 301.3 169.6 302.2 171.9 302.3H173.3C175.5 302.3 177.7 302.2 179.9 302C181.2 301.8 182.4 301.8 183.6 301.7Z" fill="#347AA7"/>
<path d="M258.5 299.2C259.1 299.7 259.8 300.3 260.3 300.8C266 305.5 271.3 310.5 276.1 315.8C281 321.1 284.4 327.2 286.4 334C286.9 336.3 287.2 338.5 287.2 340.5C287.2 345.3 285.8 349.4 282.9 352.7C278.8 357.5 274.8 360 270.9 360.3C267 360.6 264.8 360.7 264.2 360.7C257.6 360.7 251 358.4 244.2 353.8C241.1 351.5 239.2 349.4 238.6 347.4C238 345.4 237.6 343.9 237.6 342.9C237.6 341.5 238 340.2 238.7 339.1C240 337.1 242.3 336.1 245.6 336.1L258.8 341.4C259.8 341.6 260.6 341.6 261.4 341.6C263 341.6 264.2 341.3 265.2 340.6C265.8 340.1 266.1 339.4 266.1 338.4C266.1 337.1 265.6 335.3 264.5 333.1C263.3 330.9 261.5 328.7 259.3 326.6C257 324.5 254.6 322.4 252 320.3C248.8 317.7 245.7 315.1 242.9 312.3C240.1 309.5 238.1 306.8 237 304.3C235.9 301.7 235.4 299.4 235.4 297.4C235.4 295.7 235.7 293.9 236.2 292C238.1 286.4 241.2 282.1 245.7 279.1C250.2 276.1 253.9 274.6 256.8 274.3C259.7 274 261.6 274 262.4 274C266.3 274 269.6 274.8 272.5 276.5C275.6 278.3 277.1 281.1 277.1 284.7C277.1 285.1 277.1 285.5 277 285.9C276.6 289.1 275.1 291.3 272.5 292.3C269.9 293.3 266.6 294.1 262.6 294.5C261.7 294.6 260.7 294.7 259.7 294.9C257.8 295.2 256.9 295.8 256.9 296.7C256.9 297.5 257.4 298.3 258.5 299.2Z" fill="#347AA7"/>
<path d="M347 335.8L327.9 335.9C327.4 337.4 326.8 339 326.3 340.7C325 345.3 323.5 349.2 321.7 352.4C319.9 355.6 317.5 357.3 314.4 357.3C314 357.3 313.6 357.3 313.2 357.2C310.7 356.7 308.9 355.4 307.8 353.4C306.7 351.4 306.1 349.8 306.1 348.5C306.1 347.2 306.1 346.4 306.1 346.2C306.1 344 306.4 341.9 307.1 340.1C308.3 336.7 309.4 333.3 310.5 329.8C314.9 316.7 319.4 303.7 324.2 290.7C325.7 286.7 328.2 282.6 331.5 278.5C334.8 274.4 338.5 271.9 342.5 270.9C343 270.8 343.5 270.8 343.9 270.8C346.6 270.8 349 271.9 351 274C353.4 276.4 355.3 279.5 356.6 283C358 286.6 358.9 289.7 359.4 292.5C362.3 308.8 365 325.1 367.4 341.4C367.9 343.6 368.1 345.7 368.1 347.5C368.1 350.2 367.6 352.5 366.5 354.2C364.7 357.1 362.5 358.6 359.6 358.6C356.8 358.6 354.3 357 352.3 353.9C351.8 353 351.1 351.4 350.4 349C349.7 346.6 349 344.2 348.4 341.7C347.8 339.2 347.3 337.2 347 335.8ZM343.7 316.6C342.8 311.4 341.6 305.5 340 299C339.1 301.4 338.3 304.1 337.4 307.1C336.3 310.4 335.3 313.6 334.3 316.6H343.7Z" fill="#347AA7"/>
<path d="M415.2 299.2C415.8 299.7 416.5 300.3 417 300.8C422.7 305.5 428 310.5 432.8 315.8C437.7 321.1 441.1 327.2 443.1 334C443.6 336.3 443.9 338.5 443.9 340.5C443.9 345.3 442.5 349.4 439.6 352.7C435.5 357.5 431.5 360 427.6 360.3C423.7 360.6 421.5 360.7 420.9 360.7C414.4 360.7 407.7 358.4 400.9 353.8C397.8 351.5 395.9 349.4 395.3 347.4C394.7 345.4 394.3 343.9 394.3 342.9C394.3 341.5 394.7 340.2 395.4 339.1C396.7 337.1 399 336.1 402.3 336.1L415.5 341.4C416.5 341.6 417.3 341.6 418.1 341.6C419.7 341.6 420.9 341.3 421.9 340.6C422.5 340.1 422.8 339.4 422.8 338.4C422.8 337.1 422.3 335.3 421.2 333.1C420 330.9 418.2 328.7 416 326.6C413.7 324.5 411.3 322.4 408.7 320.3C405.5 317.7 402.4 315.1 399.6 312.3C396.8 309.5 394.8 306.8 393.7 304.3C392.6 301.7 392.1 299.4 392.1 297.4C392.1 295.7 392.4 293.9 392.9 292C394.8 286.4 397.9 282.1 402.4 279.1C406.9 276.1 410.6 274.6 413.5 274.3C416.4 274 418.3 274 419.1 274C423 274 426.3 274.8 429.2 276.5C432.3 278.3 433.8 281.1 433.8 284.7C433.8 285.1 433.8 285.5 433.7 285.9C433.3 289.1 431.8 291.3 429.2 292.3C426.6 293.3 423.3 294.1 419.3 294.5C418.4 294.6 417.4 294.7 416.4 294.9C414.5 295.2 413.6 295.8 413.6 296.7C413.7 297.5 414.2 298.3 415.2 299.2Z" fill="#347AA7"/>
<path d="M165.3 319.7C183.8 318.7 200.7 320.7 218.9 315.8C229.1 313.1 224.8 297.2 214.5 299.9C197.8 304.4 182.2 302.3 165.3 303.2C154.7 303.8 154.7 320.3 165.3 319.7Z" fill="#347AA7"/>
<path d="M364.4 243.1H364.7C366.3 243.1 367.6 243.6 368.6 244.5C369.4 245.3 369.9 246.3 369.9 247.6C369.9 248 369.9 248.3 369.8 248.7C369.4 250.2 368.4 251.4 366.7 252.4C365.1 253.4 363.5 253.8 362 253.9C355.5 253.9 349 253.6 342.5 253.1C340.4 252.8 339.1 252.1 338.6 251C338.1 249.9 337.8 248.9 337.8 248.2C337.8 247.4 338 246.6 338.3 245.8C339 244.3 340.4 243.4 342.6 243.1C345.9 242.9 349.3 242.8 352.7 242.8C355.9 242.8 359 242.9 362.2 243.1C363 243.1 363.7 243.1 364.4 243.1Z" fill="white"/>
</svg>
