<?xml version="1.0" encoding="utf-8"?>
<!-- Generator: Adobe Illustrator 25.4.1, SVG Export Plug-In . SVG Version: 6.00 Build 0)  -->
<svg version="1.1" id="Capa_1" xmlns="http://www.w3.org/2000/svg" xmlns:xlink="http://www.w3.org/1999/xlink" x="0px" y="0px"
	 viewBox="0 0 51.8 57.7" style="enable-background:new 0 0 51.8 57.7;" xml:space="preserve">
<style type="text/css">
	.st0{fill:#874A37;}
	.st1{fill:#A56B54;}
	.st2{fill:#D18F62;}
	.st3{fill:#2D2A26;}
	.st4{fill:#FFBE9F;}
	.st5{opacity:0.41;}
	.st6{fill:#FFFFFF;}
</style>
<g id="Capa_2_00000023249699434209205510000004833278854191411359_">
	<g id="Layer_1">
		<path class="st0" d="M22.7,32.7c0,0,6.4-19-9-24.7c0,0-10-3.9-13.7,6.9c0,0,6.6-0.2,6.7,4.1s-8.6,25.3,11.6,32
			c1.5,0.5,3.3,1,4.5-0.4C24.6,48.3,27.8,44.9,22.7,32.7"/>
		<path class="st1" d="M39.3,56.2c9.3,0.5,10.4-0.6,10.4-0.6c1.4-3-5.2-5-5.2-5c-1.8-0.5-3.7-0.6-5.5-0.2c-3.1,0.7-2.1,5.7-2.1,5.7
			L39.3,56.2z"/>
		<path class="st1" d="M46.8,38.8c0.8,0.7,1.8,1.1,2.8,1.1c0.7,0.1,1.4-0.2,1.9-0.8c0.5-0.9,0.4-2-0.3-2.7c-3-3.2-5.5-8-7.9-10.2
			L46.8,38.8z"/>
		<path class="st2" d="M39.5,55.6c9.9-4.5,9.1-18.1,6.1-25.5c-2-5.1-3.8-6.3-3.8-6.3l-10.3-0.4c0,0-19,21-3.1,31.3L39.5,55.6z"/>
		<path class="st1" d="M42.5,37.3c-0.2-0.5-0.5-1-0.9-1.5c-1.5-1.7-5.9-4.5-7.3-6.1c-0.3-2.1-0.7-4.2-1.4-6.3h-1.4
			c0,0-9.3,4.7-11.8,14.5c-3.8,14.3,6.6,19.3,6.6,19.3l11.2,0.4c8-0.8-3.4-6.5-3.4-6.5c3-2.6,4.3-6.7,3.4-10.5
			c-0.3-0.9-0.7-1.7-1.2-2.4c1,0.6,2,1,3,1.4c0.5,0.2,1.1,0.3,1.7,0.2c1,0,1.8-0.9,1.7-1.9C42.6,37.8,42.5,37.5,42.5,37.3L42.5,37.3
			z"/>
		<path class="st1" d="M27,8c0,0-11.4,17,8.7,19.9c3.4,0.5,6.9,0,10-1.5c1-0.5,1.9-1.1,2.6-2c5.1-6-0.5-15.1-0.5-15.1
			s3.6-5.7,2.1-7.2c-2.3-2.2-6.3,2-6.3,2s-4.3-2.7-12.1-0.3c0,0-2.3-4.4-5.3-3.8S27,8,27,8"/>
		<path class="st2" d="M44.5,5.1C45.4,6,46.2,7,46.9,8.1c0,0,2.9-4,1.8-5S44.5,5.2,44.5,5.1"/>
		<path class="st2" d="M30.7,4.2c-1.1,0.8-2.1,1.7-3,2.7c0,0-1.9-4-0.9-5.1S30.7,4.2,30.7,4.2"/>
		<path class="st3" d="M37.6,18.4c0,1.7,0.6,4.1,2.7,4.2c0.6,0,1.2-0.2,1.5-0.7c0.1-0.1-0.1-0.1-0.1-0.1c-0.1,0-0.2,0-0.3,0.1
			c-0.7,1-2,0.2-2.5-0.6c-0.5-0.9-0.8-1.9-0.8-3C38.1,18.2,37.6,18.3,37.6,18.4L37.6,18.4z"/>
		<path class="st3" d="M37.6,18.4c0,1.1-0.2,2.1-0.8,3c-0.2,0.4-0.6,0.7-1.1,0.9c-0.5,0.2-1.1,0-1.5-0.5c-0.1-0.1-0.6,0-0.5,0.2
			c0.7,0.7,1.9,0.8,2.7,0.2c0.7-0.6,1.2-1.4,1.4-2.3c0.1-0.5,0.2-1.1,0.2-1.6C38.1,18.2,37.6,18.3,37.6,18.4L37.6,18.4z"/>
		<path class="st4" d="M32.6,19.1c0,1-0.8,1.9-1.9,1.9c-1,0-1.9-0.8-1.9-1.9c0-1,0.8-1.9,1.9-1.9c0,0,0,0,0,0
			C31.7,17.2,32.6,18.1,32.6,19.1z"/>
		<path class="st4" d="M46.1,19.6c0,1-0.8,1.9-1.9,1.9c-1,0-1.9-0.8-1.9-1.9c0-1,0.8-1.9,1.9-1.9l0,0C45.2,17.7,46.1,18.5,46.1,19.6
			z"/>
		<path class="st3" d="M42.4,13.8c-0.1,0.9,0.5,1.8,1.4,2.1c0.8,0.2,1.7-0.1,2.2-0.9c0.2-0.4,0.4-0.9,0.5-1.4c0-0.3-0.4-0.4-0.5-0.1
			c-0.1,0.4-0.2,0.9-0.4,1.3c-0.2,0.3-0.6,0.5-1,0.6c-0.4,0.1-0.9,0-1.2-0.3c-0.3-0.3-0.5-0.8-0.5-1.3c0-0.1-0.2-0.2-0.3-0.2
			C42.5,13.6,42.4,13.7,42.4,13.8L42.4,13.8z"/>
		<path class="st3" d="M32.8,13.8c0,0.5-0.1,0.9-0.4,1.2c-0.3,0.3-0.8,0.5-1.3,0.3c-0.4-0.1-0.7-0.3-0.9-0.6
			c-0.2-0.4-0.4-0.8-0.4-1.3c-0.1-0.3-0.5-0.2-0.5,0.1c0.1,0.8,0.5,1.6,1.2,2c0.8,0.5,1.9,0.3,2.5-0.4c0.3-0.4,0.5-0.9,0.5-1.5
			c0-0.1-0.2-0.2-0.3-0.2C33,13.5,32.9,13.6,32.8,13.8L32.8,13.8z"/>
		<g class="st5">
			<path class="st6" d="M35.5,7.9c-0.1-0.3-0.2-0.7-0.2-1c0-0.1-0.1-0.1-0.1-0.2c-0.1,0-0.1,0-0.2,0c-0.1,0-0.2,0.2-0.2,0.3
				c0,0.3,0.1,0.6,0.2,0.9c0,0.1,0.2,0.2,0.3,0.2C35.5,8.1,35.5,8,35.5,7.9L35.5,7.9z"/>
			<path class="st6" d="M37,6.9c0-0.6,0-1.2,0-1.7c0-0.1-0.1-0.3-0.3-0.2c-0.1,0-0.2,0.1-0.2,0.2c0,0.6,0,1.2,0,1.7
				c0,0.1,0.1,0.3,0.2,0.3c0.1,0,0.3-0.1,0.3-0.2C37,7,37,6.9,37,6.9L37,6.9z"/>
			<path class="st6" d="M38,8.5V7c0-0.1-0.1-0.3-0.2-0.3c-0.1,0-0.3,0.1-0.3,0.2c0,0,0,0.1,0,0.1v1.5c0,0.1,0.1,0.3,0.2,0.3
				S38,8.7,38,8.6C38,8.5,38,8.5,38,8.5z"/>
			<path class="st6" d="M39.4,6.2c0,0,0-0.1,0-0.1v0c0,0,0-0.1,0,0c0-0.1,0-0.2,0-0.2c0-0.2,0.1-0.3,0.1-0.5c0-0.1,0-0.1,0-0.2
				C39.5,5,39.5,5,39.4,5c-0.1,0-0.3,0-0.3,0.2c-0.1,0.3-0.1,0.7-0.2,1.1c0,0.1,0.1,0.3,0.3,0.3C39.3,6.4,39.4,6.3,39.4,6.2
				L39.4,6.2z"/>
			<path class="st6" d="M40.7,7.9c0.2-0.4,0.3-0.9,0.5-1.3c0-0.1,0-0.3-0.2-0.3c0,0,0,0,0,0c-0.1,0-0.3,0-0.3,0.2
				c-0.2,0.4-0.3,0.9-0.5,1.3c0,0.1,0,0.3,0.2,0.3C40.5,8.1,40.6,8.1,40.7,7.9L40.7,7.9z"/>
			<path class="st6" d="M36.1,9.4L36.1,9.4L36.1,9.4l0.1,0.2l0.1,0.2l0,0l0,0v0.1v0.1l0.1,0.2c0,0.1,0.2,0.2,0.3,0.2
				c0.1,0,0.2-0.2,0.2-0.3c-0.1-0.4-0.2-0.7-0.4-1c0-0.1-0.1-0.1-0.2-0.1c-0.1,0-0.1,0-0.2,0.1c0,0.1-0.1,0.1-0.1,0.2
				C36,9.2,36.1,9.3,36.1,9.4z"/>
			<path class="st6" d="M37.8,9.7c0,0.3,0,0.7,0,1c0,0.1,0,0.3,0.2,0.3c0,0,0,0,0,0c0.1,0,0.3-0.1,0.3-0.2c0-0.2,0-0.3,0-0.5
				c0-0.1,0-0.1,0-0.2V9.9c0,0,0,0,0-0.1l0,0c0-0.1,0-0.1,0-0.2c0-0.1-0.1-0.1-0.2-0.1C38,9.5,37.8,9.6,37.8,9.7L37.8,9.7z"/>
			<path class="st6" d="M39.7,9.5c-0.3,0.4-0.5,0.9-0.8,1.3c-0.1,0.1,0,0.3,0.1,0.4c0.1,0.1,0.3,0,0.3-0.1c0,0,0,0,0,0
				c0.2-0.4,0.5-0.9,0.8-1.3c0.1-0.1,0-0.3-0.1-0.3C39.9,9.3,39.7,9.4,39.7,9.5L39.7,9.5z"/>
			<path class="st6" d="M35.4,11.4c0,0.4,0.1,0.8,0.3,1.1c0,0.1,0.2,0.2,0.3,0.2c0.1,0,0.2-0.2,0.2-0.3c0-0.2-0.1-0.3-0.2-0.5
				c0-0.1-0.1-0.2-0.1-0.3c0,0,0,0,0-0.1l0,0v-0.2c0-0.1-0.1-0.3-0.2-0.3c0,0,0,0,0,0C35.6,11.2,35.5,11.3,35.4,11.4L35.4,11.4z"/>
			<path class="st6" d="M37.2,12.1c0,0.2,0,0.4,0,0.6c0,0.1,0.2,0.2,0.3,0.2c0,0,0,0,0,0c0.1,0,0.1-0.1,0.2-0.1v-0.1
				c0,0,0-0.1,0-0.1l0,0c0-0.1,0-0.3,0-0.4c0-0.1,0-0.1-0.1-0.2c0,0-0.1-0.1-0.2-0.1c-0.1,0-0.1,0-0.2,0.1
				C37.2,11.9,37.1,12,37.2,12.1L37.2,12.1z"/>
			<path class="st6" d="M38.8,12.6c0,0.2,0,0.3,0.1,0.5c0,0,0,0.1,0,0.1s0-0.1,0,0v0.1c0,0.1,0,0.2,0,0.2c0,0.1,0.2,0.2,0.3,0.2
				c0.1,0,0.2-0.1,0.2-0.2c0-0.2,0-0.3,0-0.5c0-0.1,0-0.2,0-0.2v-0.1l0,0l0,0c0,0,0-0.1,0-0.1c0-0.1-0.1-0.3-0.2-0.3
				C39,12.3,38.9,12.5,38.8,12.6L38.8,12.6z"/>
			<path class="st6" d="M37,14v0.6c0,0.1,0.1,0.3,0.2,0.3c0,0,0,0,0,0c0.1,0,0.3-0.1,0.3-0.3V14c0-0.1-0.1-0.3-0.3-0.3
				C37.1,13.7,37,13.9,37,14z"/>
			<path class="st6" d="M38.2,14.4c0,0,0,0.1,0,0.1c0,0,0,0.1,0,0.1l0,0l0,0c0,0.1,0,0.2,0,0.3c0,0,0,0.1,0,0.1v0.1c0,0,0,0.1,0,0
				c0,0.1,0,0.2,0,0.3c0,0.1,0,0.3,0.2,0.3c0.1,0,0.3,0,0.3-0.2c0,0,0,0,0,0c0.1-0.5,0.1-0.9,0-1.4c0-0.1-0.2-0.2-0.3-0.2
				C38.1,14.1,38.1,14.2,38.2,14.4L38.2,14.4z"/>
		</g>
		<path class="st3" d="M37.7,19.7c0,0-3.8-2.5,0-2.5S37.7,19.7,37.7,19.7z"/>
	</g>
</g>
</svg>
