<svg xmlns="http://www.w3.org/2000/svg" viewBox="0 0 40.09 48.24"><title>ancla</title><g id="Capa_2" data-name="Capa 2"><g id="Layer_1" data-name="Layer 1"><path d="M5,31C6.8,33.3,10.08,38,14.07,37.72c3.25-.24,3.68-4.46,3.61-7.66-.23-11.13,0-13.5-.2-14.06-.61-1.81-1.53-.86-7.47-.9a4.14,4.14,0,0,1-2.22-.37,5,5,0,0,1-.42-1.33,2.5,2.5,0,0,1,.13-1.15c.77-.82,1.37-.34,8.69-.53a1.78,1.78,0,0,0,1.31-1.56c0-.4-.08-.8-.08-1.21,0-.83-2-.75-2.48-3.71A4.5,4.5,0,0,1,19.6,0c4.58.2,5.92,6.46,1.89,8.48-.73.37-.6.65-.58,2,0,.76.37,1.15,1.11,1.12,2.3-.12,4.61,0,6.92-.05a2,2,0,0,1,1.06.24A1.68,1.68,0,0,1,30.67,13a2,2,0,0,1-.39,1.43,1.29,1.29,0,0,1-1,.39C19.7,15,21,13,21,21c.05,12-.5,15.69,2.4,16.55C28.25,39,33.6,33.43,35.53,28.43c-2-.71-2.05-.58-1.18-1.43,4.41-4.31,4-4.29,4.6-2.17,0,.06,1.11,3.9,1.13,4.1.14,1.26-1.93-.48-2.13.52a27.51,27.51,0,0,1-1.16,3.78C33,43.68,24.73,42.17,20.45,47.29c-.41.49-.57,1.37-1.08.72-5.41-6.79-9.24-2.5-16.2-13.24C1.93,32.84,2.41,32.55,1.43,33s-1,.53-1.08-.18C.08,28.44.2,28,0,26.54c-.08-.73,0-1.38.58-1s-1.7-1.06,6.15,3.73c.39.24.37.37,0,.63L5,31M21.69,4.66A2.27,2.27,0,0,0,20.4,2.43a2.31,2.31,0,0,0-3,3.28c.77,1.18,1.37,1.12,2.4,1.12a2.49,2.49,0,0,0,.91-.38,2.27,2.27,0,0,0,1-1.79" style="fill:#366287"/></g></g></svg>